<?xml version="1.0" encoding="UTF-8"?>
<svg version="1.1" xmlns="http://www.w3.org/2000/svg" width="512" height="512">
<path d="M0 0 C3.76222543 2.22339916 6.81559165 5.02522355 10 8 C10.80179688 8.68578125 11.60359375 9.3715625 12.4296875 10.078125 C19.51917858 16.19366043 25.74910969 23.0509862 32 30 C32.91136719 29.443125 33.82273437 28.88625 34.76171875 28.3125 C48.32568962 20.24527274 67.69628622 9.18847625 84 11 C98.01860944 20.87508816 105.16128942 45.75176132 108 62 C108 63.32 108 64.64 108 66 C108.97759277 65.98952637 109.95518555 65.97905273 110.96240234 65.96826172 C114.63391369 65.93171026 118.30540939 65.90897338 121.97705078 65.89013672 C123.55780758 65.88015841 125.13854631 65.86657093 126.71923828 65.84912109 C148.66352159 65.61316106 148.66352159 65.61316106 153.66235352 69.18920898 C157.20347662 72.88187087 157.94199098 77.0417285 158.3125 81.9375 C158.41739746 83.05620483 158.41739746 83.05620483 158.52441406 84.19750977 C161.70597179 121.1498139 151.76586494 159.13853794 128 188 C125.09495253 191.42993082 122.09008 194.73626261 119 198 C118.16855469 198.89589844 117.33710938 199.79179687 116.48046875 200.71484375 C99.45416806 218.48900538 77.38451106 230.03869525 53.875 236.75 C53.1835791 236.94883789 52.4921582 237.14767578 51.77978516 237.35253906 C39.67555428 240.63399296 27.63932051 241.31367507 15.17578125 241.30078125 C13.5783833 241.30468334 11.98098636 241.30902102 10.3835907 241.31376648 C7.05297468 241.3211751 3.72246474 241.32097763 0.3918457 241.31567383 C-3.8222705 241.30989926 -8.0359443 241.32678775 -12.2499876 241.3500185 C-15.54566374 241.36493923 -18.84123796 241.36560281 -22.13694191 241.36250877 C-23.68787318 241.36301327 -25.23881154 241.36808157 -26.78970909 241.37832069 C-41.73073654 241.46485538 -56.45388355 239.80665585 -70.625 234.8125 C-71.49616455 234.51351807 -72.3673291 234.21453613 -73.26489258 233.90649414 C-81.55830499 230.96802682 -89.3037831 227.241665 -97 223 C-97.9075 222.50886719 -98.815 222.01773438 -99.75 221.51171875 C-129.81208061 204.40909276 -153.46083831 174.24595404 -163 141 C-165.98579836 129.56259753 -168.76776868 117.86038521 -169 106 C-169.03867188 104.86175781 -169.07734375 103.72351563 -169.1171875 102.55078125 C-169.24713559 95.64187426 -168.9677608 88.81362901 -168.3125 81.9375 C-168.25924561 81.23536377 -168.20599121 80.53322754 -168.15112305 79.80981445 C-167.68430685 75.59936496 -166.64168772 72.29604078 -163.66235352 69.18920898 C-155.99570809 63.70466942 -143.38797219 65.77550249 -134.375 65.875 C-132.78255773 65.88505207 -131.19010929 65.89417397 -129.59765625 65.90234375 C-125.73161635 65.92417592 -121.86587764 65.95858216 -118 66 C-117.85377197 64.75976074 -117.70754395 63.51952148 -117.55688477 62.24169922 C-115.61076567 45.73560699 -108.03387887 24.33864622 -96.328125 12.27734375 C-91.42083441 9.58492089 -86.31143158 10.76739977 -81.1875 12.25 C-79.45299051 12.81724946 -77.72390703 13.40130166 -76 14 C-75.08589355 14.31106689 -74.17178711 14.62213379 -73.22998047 14.94262695 C-62.19228987 18.81784753 -52.11183581 24.16823791 -42 30 C-41.59797363 29.56244385 -41.19594727 29.1248877 -40.78173828 28.67407227 C-25.52882031 12.11780224 -25.52882031 12.11780224 -17 5 C-16.401875 4.45601563 -15.80375 3.91203125 -15.1875 3.3515625 C-10.55797639 -0.52780682 -5.89039093 -1.51896138 0 0 Z " fill="#062A75" transform="translate(261,0)"/>
<path d="M0 0 C8.24148554 5.8499307 15.02659075 13.83127195 17 24 C17.09653351 26.32257812 17.13494245 28.64775895 17.14044189 30.97233582 C17.14341302 31.67429701 17.14638414 32.3762582 17.1494453 33.09949094 C17.15811729 35.45200019 17.15963934 37.80445846 17.16113281 40.15698242 C17.16576245 41.84425464 17.1707873 43.53152582 17.17617798 45.21879578 C17.18929936 49.80633052 17.19574769 54.39385062 17.20018864 58.98140121 C17.20312283 61.85334388 17.20722853 64.7252826 17.21169281 67.59722328 C17.22537375 76.5988711 17.23503465 85.60050982 17.2388947 94.60216731 C17.24336194 104.96125767 17.26084502 115.3202152 17.2898953 125.6792652 C17.31160794 133.70332706 17.32160424 141.72735184 17.32293582 149.75144273 C17.32397801 154.5346003 17.32975854 159.31763312 17.34775543 164.10075951 C17.36440004 168.61273568 17.36631335 173.12449559 17.35761642 177.63649178 C17.35685443 179.27900655 17.36107584 180.92153373 17.37107468 182.56401825 C17.58574752 220.07552569 3.12596299 254.71475509 -23.2409668 281.4362793 C-24.64900449 282.83421619 -26.05718392 284.23203467 -27.47238731 285.6227169 C-28.99621469 287.12040865 -30.51316957 288.62479217 -32.02876282 290.1308136 C-35.24264822 293.32215224 -38.46444174 296.50542917 -41.6875 299.6875 C-45.43966427 303.39211896 -49.18832439 307.10015574 -52.92862892 310.81675148 C-54.41002885 312.28536705 -55.89739533 313.74773956 -57.38517761 315.20988464 C-70.82172313 328.54904076 -77.69575521 340.28235078 -78.16015625 359.546875 C-78.18754883 360.52688477 -78.21494141 361.50689453 -78.24316406 362.51660156 C-78.28871271 364.47647653 -78.31092086 366.43705953 -78.30761719 368.39746094 C-78.32598633 369.30786133 -78.34435547 370.21826172 -78.36328125 371.15625 C-78.36626221 371.96900391 -78.36924316 372.78175781 -78.37231445 373.61914062 C-79.08117836 376.30791573 -80.10824717 378.00589078 -82.12527752 379.9265461 C-86.46511374 382.4115081 -91.93658126 381.69665075 -96.7890625 381.6628418 C-98.73857819 381.67839363 -98.73857819 381.67839363 -100.72747803 381.69425964 C-104.28547027 381.72128797 -107.84276077 381.71661308 -111.40081024 381.70455909 C-114.37308892 381.69742257 -117.34523824 381.70593041 -120.31750679 381.71446449 C-127.32962847 381.73440963 -134.34140915 381.72885518 -141.35351562 381.70678711 C-148.58439198 381.68441704 -155.81437586 381.70203033 -163.04516792 381.73983639 C-169.25767884 381.77107593 -175.46991355 381.77898493 -181.68249321 381.76788265 C-185.39116119 381.76139729 -189.09931406 381.76338878 -192.80792236 381.78720665 C-196.94282204 381.812411 -201.07605832 381.78883735 -205.2109375 381.76049805 C-206.43810486 381.77421448 -207.66527222 381.78793091 -208.92962646 381.80206299 C-216.7969891 381.69405739 -216.7969891 381.69405739 -219.87460232 379.91847897 C-223.06341237 376.64064942 -223.5923405 373.07523824 -223.66653442 368.73080444 C-223.65484222 367.9375174 -223.64315002 367.14423035 -223.63110352 366.3269043 C-223.63825882 365.47551376 -223.64541412 364.62412323 -223.65278625 363.74693298 C-223.6696566 360.93881088 -223.65026256 358.13229094 -223.62890625 355.32421875 C-223.62973594 353.3556963 -223.63219911 351.38717392 -223.63621521 349.4186554 C-223.6390732 345.28857608 -223.62438666 341.15903894 -223.59692383 337.02905273 C-223.56308785 331.78205158 -223.56877678 326.53603522 -223.5875864 321.28898907 C-223.59826104 317.21779973 -223.58912065 313.14683152 -223.57420158 309.07566261 C-223.56907887 307.14433262 -223.56942824 305.2129789 -223.57574654 303.28165245 C-223.63385589 274.81140059 -215.27080557 250.61091976 -195 230 C-194.25234375 229.23945313 -193.5046875 228.47890625 -192.734375 227.6953125 C-181.76162033 217.19489496 -169.27674958 211.27133697 -154.99414062 206.64990234 C-152.01529253 205.67907795 -149.06699407 204.63960446 -146.125 203.5625 C-145.19945312 203.23378906 -144.27390625 202.90507812 -143.3203125 202.56640625 C-131.7245197 197.09592047 -123.58586303 189.03082862 -114.8125 179.9375 C-90.89577373 155.29497257 -90.89577373 155.29497257 -76.44921875 154.69140625 C-72.28999691 154.63881789 -68.15300281 154.77857213 -64 155 C-62.59984867 145.24383724 -61.51124732 135.54507645 -60.8984375 125.703125 C-60.85647625 125.03781013 -60.814515 124.37249527 -60.7712822 123.68701935 C-60.02655864 111.58055108 -59.80288049 99.48655012 -59.7265625 87.359375 C-59.7207592 86.47829575 -59.7149559 85.59721649 -59.70897675 84.68943787 C-59.65816789 76.52022164 -59.62647014 68.35101186 -59.61914062 60.18164062 C-59.61410039 55.64470982 -59.58978156 51.10820465 -59.55381393 46.57141876 C-59.54413072 44.87321792 -59.54161993 43.17495795 -59.54698563 41.47673798 C-59.58752759 28.07068035 -58.34312716 16.7362606 -49.203125 6.19140625 C-36.24164372 -6.70113098 -15.76924306 -9.68844142 0 0 Z " fill="#D26A5C" transform="translate(495,131)"/>
<path d="M0 0 C9.276155 5.99028669 15.24086804 13.17684752 18.34727478 23.77108765 C19.74240366 30.67253518 19.44098747 37.77483566 19.44140625 44.7890625 C19.45322248 46.53658121 19.46659676 48.28408999 19.48143005 50.03158569 C19.51749931 54.63221452 19.53774958 59.23275587 19.55297852 63.83349609 C19.58078391 71.98546748 19.62640188 80.13730322 19.69140625 88.2890625 C19.69844196 89.17260658 19.70547768 90.05615067 19.71272659 90.96646881 C19.81912355 102.90189432 20.15289452 114.7979271 20.90234375 126.7109375 C20.97916885 127.94824615 21.05599396 129.18555481 21.13514709 130.46035767 C21.7302583 139.03399616 22.7793142 147.49642903 24 156 C25.63195312 155.91298828 25.63195312 155.91298828 27.296875 155.82421875 C42.83278567 155.2406021 52.43224074 159.50082145 64 170 C66.13136038 172.05543932 68.20646869 174.1613562 70.26953125 176.28515625 C70.80437134 176.83554062 71.33921143 177.38592499 71.89025879 177.95298767 C74.08388809 180.21967653 76.27188046 182.49105744 78.43969727 184.7824707 C88.97020405 195.87629235 99.58367216 203.24770405 114.5 207.5625 C140.09009883 215.59464722 160.2607494 231.23917106 173.04785156 254.94238281 C181.70840213 271.89658377 183.6288101 289.2186209 183.56640625 308.015625 C183.57165725 309.97092989 183.57793905 311.92623226 183.58518982 313.88153076 C183.59549738 317.93888456 183.59116326 321.99588537 183.57641602 326.05322266 C183.55908512 331.24500412 183.58294862 336.43569349 183.61790562 341.62735367 C183.63985837 345.64745367 183.63844591 349.66729015 183.6301403 353.68743134 C183.62932264 355.60275231 183.63615052 357.51809297 183.65091133 359.43335724 C183.66835462 362.10112016 183.65382659 364.76688741 183.63110352 367.43457031 C183.64864182 368.60811821 183.64864182 368.60811821 183.66653442 369.80537415 C183.59176708 374.12512959 183.03940703 377.65481388 179.87460232 380.91469383 C175.48821074 383.4542073 170.12439749 382.81541732 165.2109375 382.76049805 C163.26142181 382.77385948 163.26142181 382.77385948 161.27252197 382.78749084 C157.71437475 382.81054094 154.15730225 382.7958728 150.59918976 382.77302146 C146.87258916 382.75408392 143.14605972 382.76526716 139.41943359 382.77192688 C133.16161052 382.77826452 126.90421726 382.76001336 120.64648438 382.72729492 C113.41567656 382.68980097 106.18568293 382.69157961 98.95483208 382.7143361 C91.99381332 382.73529791 85.03309496 382.72800404 78.07208252 382.70801735 C75.11199342 382.7000388 72.15215893 382.70201366 69.19207764 382.71204185 C65.05727492 382.724569 60.92375245 382.69582538 56.7890625 382.6628418 C55.56189514 382.67139191 54.33472778 382.67994202 53.07037354 382.68875122 C43.84225747 382.56148762 43.84225747 382.56148762 40.73991394 379.6073761 C38.88199735 376.82316523 38.37541464 375.46440323 38.36328125 372.15625 C38.34499268 371.24601074 38.3267041 370.33577148 38.30786133 369.39794922 C38.30939209 368.44162598 38.31092285 367.48530273 38.3125 366.5 C38.26492539 364.51290777 38.21286346 362.52591775 38.15625 360.5390625 C38.13304688 359.58290039 38.10984375 358.62673828 38.0859375 357.64160156 C37.63378848 343.74315732 33.62279526 333.45139659 24.05859375 323.3984375 C23.4565361 322.75950562 22.85447845 322.12057373 22.23417664 321.46228027 C16.94674422 315.89855213 11.50957864 310.48867635 6.05078125 305.09375 C5.17898224 304.23200165 4.30718323 303.3702533 3.40896606 302.48239136 C-0.1954704 298.92373725 -3.80143695 295.36684036 -7.42211914 291.82470703 C-20.9226067 278.60166824 -33.19338329 265.68272599 -41.8125 248.6875 C-42.493125 247.36383423 -42.493125 247.36383423 -43.1875 246.01342773 C-51.52662304 229.34862223 -57.08389813 210.3299837 -57.14717102 191.61979675 C-57.15084771 190.91033333 -57.1545244 190.2008699 -57.1583125 189.46990758 C-57.16925969 187.1103833 -57.17317774 184.75090319 -57.17700195 182.39135742 C-57.18327321 180.69228478 -57.18992059 178.99321349 -57.19691467 177.29414368 C-57.21787254 171.7312616 -57.2283069 166.1683795 -57.23828125 160.60546875 C-57.24233141 158.68550414 -57.24644841 156.76553966 -57.25063133 154.84557533 C-57.26966205 145.82633485 -57.28389948 136.80710247 -57.2922433 127.78784579 C-57.30201864 117.39471684 -57.32835485 107.00180069 -57.36874419 96.60874671 C-57.39893816 88.56180494 -57.41371515 80.5149241 -57.41702431 72.4679268 C-57.4193703 67.66766633 -57.42827261 62.86763376 -57.45348549 58.06743431 C-57.47682988 53.55047024 -57.48097396 49.03388317 -57.47072411 44.51687431 C-57.47023024 42.86495964 -57.47650633 41.21302599 -57.49028015 39.56116867 C-57.60007854 25.60593385 -55.09674055 15.80442481 -45.48046875 5.34765625 C-33.67337599 -5.94233756 -14.19191254 -7.89675384 0 0 Z " fill="#B35248" transform="translate(57,130)"/>
<path d="M0 0 C9.276155 5.99028669 15.24086804 13.17684752 18.34727478 23.77108765 C19.74240366 30.67253518 19.44098747 37.77483566 19.44140625 44.7890625 C19.45322248 46.53658121 19.46659676 48.28408999 19.48143005 50.03158569 C19.51749931 54.63221452 19.53774958 59.23275587 19.55297852 63.83349609 C19.58078391 71.98546748 19.62640188 80.13730322 19.69140625 88.2890625 C19.69844196 89.17260658 19.70547768 90.05615067 19.71272659 90.96646881 C19.81912355 102.90189432 20.15289452 114.7979271 20.90234375 126.7109375 C20.97916885 127.94824615 21.05599396 129.18555481 21.13514709 130.46035767 C21.7302583 139.03399616 22.7793142 147.49642903 24 156 C25.63195312 155.91298828 25.63195312 155.91298828 27.296875 155.82421875 C42.83278567 155.2406021 52.43224074 159.50082145 64 170 C66.13136038 172.05543932 68.20646869 174.1613562 70.26953125 176.28515625 C70.80437134 176.83554062 71.33921143 177.38592499 71.89025879 177.95298767 C74.08388809 180.21967653 76.27188046 182.49105744 78.43969727 184.7824707 C88.97020405 195.87629235 99.58367216 203.24770405 114.5 207.5625 C140.09009883 215.59464722 160.2607494 231.23917106 173.04785156 254.94238281 C181.70840213 271.89658377 183.6288101 289.2186209 183.56640625 308.015625 C183.57165725 309.97092989 183.57793905 311.92623226 183.58518982 313.88153076 C183.59549738 317.93888456 183.59116326 321.99588537 183.57641602 326.05322266 C183.55908512 331.24500412 183.58294862 336.43569349 183.61790562 341.62735367 C183.63985837 345.64745367 183.63844591 349.66729015 183.6301403 353.68743134 C183.62932264 355.60275231 183.63615052 357.51809297 183.65091133 359.43335724 C183.66835462 362.10112016 183.65382659 364.76688741 183.63110352 367.43457031 C183.64864182 368.60811821 183.64864182 368.60811821 183.66653442 369.80537415 C183.59176708 374.12512959 183.03940703 377.65481388 179.87460232 380.91469383 C175.48821074 383.4542073 170.12439749 382.81541732 165.2109375 382.76049805 C163.26142181 382.77385948 163.26142181 382.77385948 161.27252197 382.78749084 C157.71437475 382.81054094 154.15730225 382.7958728 150.59918976 382.77302146 C146.87258916 382.75408392 143.14605972 382.76526716 139.41943359 382.77192688 C133.16161052 382.77826452 126.90421726 382.76001336 120.64648438 382.72729492 C113.41567656 382.68980097 106.18568293 382.69157961 98.95483208 382.7143361 C91.99381332 382.73529791 85.03309496 382.72800404 78.07208252 382.70801735 C75.11199342 382.7000388 72.15215893 382.70201366 69.19207764 382.71204185 C65.05727492 382.724569 60.92375245 382.69582538 56.7890625 382.6628418 C55.56189514 382.67139191 54.33472778 382.67994202 53.07037354 382.68875122 C43.84225747 382.56148762 43.84225747 382.56148762 40.73991394 379.6073761 C38.88199735 376.82316523 38.37541464 375.46440323 38.36328125 372.15625 C38.34499268 371.24601074 38.3267041 370.33577148 38.30786133 369.39794922 C38.30939209 368.44162598 38.31092285 367.48530273 38.3125 366.5 C38.26492539 364.51290777 38.21286346 362.52591775 38.15625 360.5390625 C38.13304688 359.58290039 38.10984375 358.62673828 38.0859375 357.64160156 C37.63378848 343.74315732 33.62279526 333.45139659 24.05859375 323.3984375 C23.4565361 322.75950562 22.85447845 322.12057373 22.23417664 321.46228027 C16.94674422 315.89855213 11.50957864 310.48867635 6.05078125 305.09375 C5.17898224 304.23200165 4.30718323 303.3702533 3.40896606 302.48239136 C-0.1954704 298.92373725 -3.80143695 295.36684036 -7.42211914 291.82470703 C-20.9226067 278.60166824 -33.19338329 265.68272599 -41.8125 248.6875 C-42.493125 247.36383423 -42.493125 247.36383423 -43.1875 246.01342773 C-51.52662304 229.34862223 -57.08389813 210.3299837 -57.14717102 191.61979675 C-57.15084771 190.91033333 -57.1545244 190.2008699 -57.1583125 189.46990758 C-57.16925969 187.1103833 -57.17317774 184.75090319 -57.17700195 182.39135742 C-57.18327321 180.69228478 -57.18992059 178.99321349 -57.19691467 177.29414368 C-57.21787254 171.7312616 -57.2283069 166.1683795 -57.23828125 160.60546875 C-57.24233141 158.68550414 -57.24644841 156.76553966 -57.25063133 154.84557533 C-57.26966205 145.82633485 -57.28389948 136.80710247 -57.2922433 127.78784579 C-57.30201864 117.39471684 -57.32835485 107.00180069 -57.36874419 96.60874671 C-57.39893816 88.56180494 -57.41371515 80.5149241 -57.41702431 72.4679268 C-57.4193703 67.66766633 -57.42827261 62.86763376 -57.45348549 58.06743431 C-57.47682988 53.55047024 -57.48097396 49.03388317 -57.47072411 44.51687431 C-57.47023024 42.86495964 -57.47650633 41.21302599 -57.49028015 39.56116867 C-57.60007854 25.60593385 -55.09674055 15.80442481 -45.48046875 5.34765625 C-33.67337599 -5.94233756 -14.19191254 -7.89675384 0 0 Z M-34.58166504 24.12489319 C-38.43841234 30.45589836 -37.68088731 37.71975775 -37.61523438 44.87670898 C-37.61873954 46.48575932 -37.62440256 48.09480618 -37.63204956 49.70384216 C-37.64626088 54.05997447 -37.6292656 58.41547258 -37.60576439 62.77154422 C-37.58557784 67.34932577 -37.59153954 71.92708293 -37.59387207 76.50489807 C-37.59381853 84.20088062 -37.57409444 91.89661742 -37.54199219 99.5925293 C-37.50521899 108.45041614 -37.49630094 117.30797986 -37.5032897 126.16593307 C-37.50963242 134.72279312 -37.4987636 143.27954396 -37.47932434 151.83638191 C-37.47121575 155.45913327 -37.46842866 159.08182829 -37.47001648 162.70458794 C-37.47090629 166.9901436 -37.45639009 171.27540026 -37.43078995 175.56087685 C-37.42372555 177.11952131 -37.42149646 178.67819782 -37.42490768 180.23685455 C-37.4502482 194.565491 -35.80733721 208.59695394 -30.8125 222.125 C-30.36076416 223.37410156 -30.36076416 223.37410156 -29.89990234 224.6484375 C-21.7311449 246.53248414 -7.33909616 262.97085913 9.1875 279.109375 C10.62940412 280.5291287 12.06943932 281.9507624 13.50950623 283.3723793 C17.00366019 286.82146696 20.50174681 290.26633452 24.01660156 293.69433594 C50.70971553 319.74851858 50.70971553 319.74851858 56 338 C56.391875 339.216875 56.78375 340.43375 57.1875 341.6875 C58.44608956 348.36770611 58.57596894 355.21550304 59 362 C93.32 362 127.64 362 163 362 C163.0825 350.45 163.165 338.9 163.25 327 C163.28641602 323.38675781 163.32283203 319.77351563 163.36035156 316.05078125 C163.37374972 312.74060811 163.37374972 312.74060811 163.3817749 309.43041992 C163.38781732 307.9844059 163.40167068 306.53840875 163.42230225 305.0925293 C163.60769416 291.38471828 161.88133945 277.96903454 155.3125 265.6875 C154.79985596 264.70124634 154.79985596 264.70124634 154.27685547 263.69506836 C150.92982656 257.48403215 146.8588262 252.11970277 142 247 C141.25234375 246.21109375 140.5046875 245.4221875 139.734375 244.609375 C130.19277862 235.32053614 118.99732707 230.46095058 106.5 226.5 C94.70615884 222.75313612 84.35303011 218.18548179 74.87109375 210.046875 C74.31667099 209.57419189 73.76224823 209.10150879 73.19102478 208.61450195 C66.21274652 202.57287519 59.83521406 195.92946392 53.41967773 189.30322266 C51.81882344 187.65400203 50.20876489 186.01419538 48.59765625 184.375 C48.12256119 183.87814697 47.64746613 183.38129395 47.15797424 182.86938477 C43.55598628 179.21485784 39.83424117 176.54055115 34.7265625 175.56640625 C28.00425304 175.55391125 23.22835008 177.13647413 18.16796875 181.625 C13.85917689 186.46860677 13.36968414 190.71612298 13.49609375 197.0703125 C14.50595183 202.94158043 17.46202022 206.83570586 21.62329102 210.94799805 C22.55758438 211.87883713 23.49187775 212.80967621 24.45448303 213.76872253 C25.47087352 214.76647343 26.48734998 215.76413676 27.50390625 216.76171875 C28.54930737 217.79897437 29.59396881 218.83697596 30.63792419 219.87568665 C33.37780689 222.59851187 36.12614579 225.31262952 38.87683105 228.02453613 C43.28473768 232.37307057 47.67988318 236.73449458 52.07450676 241.09644508 C53.60844508 242.61644353 55.14614526 244.13255299 56.6844635 245.64811707 C57.61560471 246.56949966 58.54674591 247.49088226 59.50610352 248.44018555 C60.32756363 249.25037643 61.14902374 250.06056732 61.99537659 250.89530945 C65.96432989 255.06238565 65.96432989 255.06238565 66.08203125 258.15625 C65.94861328 259.31640625 65.94861328 259.31640625 65.8125 260.5 C65.73644531 261.2734375 65.66039063 262.046875 65.58203125 262.84375 C64.89603471 265.38516001 64.0214831 266.35472343 62 268 C58.85385124 269.57307438 56.35072265 269.95420682 53 269 C50.75640869 267.29637146 50.75640869 267.29637146 48.34472656 265.04077148 C47.46401489 264.22091766 46.58330322 263.40106384 45.67590332 262.55636597 C41.5797818 258.64322547 37.50854241 254.70987442 33.484375 250.72265625 C32.62491272 249.87126572 31.76545044 249.01987518 30.87994385 248.14268494 C29.08029717 246.35675501 27.28211442 244.56934878 25.48535156 242.78051758 C23.65907003 240.96580923 21.82831666 239.15559037 19.99316406 237.34985352 C17.3136208 234.71311981 14.64770654 232.06325289 11.984375 229.41015625 C10.76545563 228.21749901 10.76545563 228.21749901 9.52191162 227.00074768 C0.78632901 218.23189266 -5.13232665 209.08396537 -5.38012695 196.44067383 C-5.34601278 181.03243978 -5.34601278 181.03243978 0.23993778 174.56422138 C2.99199401 171.20558358 3.97252435 169.52273269 4.2073822 165.05448914 C4.0422244 163.59111414 3.84746929 162.13088019 3.62866211 160.67456055 C3.43187673 158.99935913 3.23531914 157.32413094 3.03895569 155.64888 C2.92454699 154.76427912 2.81013828 153.87967823 2.69226265 152.96827126 C0.49084004 135.67108654 -0.40554377 118.50885631 -0.43359375 101.08203125 C-0.43712482 100.04505978 -0.4406559 99.0080883 -0.44429398 97.93969345 C-0.47109184 89.47465781 -0.45536271 81.00987026 -0.42626953 72.54486084 C-0.40482631 66.12773769 -0.40287273 59.71124648 -0.42918587 53.29413414 C-0.4334876 50.34237269 -0.40911737 47.3917702 -0.38365173 44.44013977 C-0.38891829 42.6395314 -0.3956379 40.83892649 -0.40405273 39.03833008 C-0.38914291 38.23697632 -0.37423309 37.43562256 -0.35887146 36.60998535 C-0.43408588 30.62394513 -2.28529594 26.67251335 -6 22 C-10.88614512 17.47137769 -14.98344501 15.44320488 -21.625 15.62890625 C-27.28871524 16.51386176 -31.19506529 19.64152458 -34.58166504 24.12489319 Z " fill="#052A74" transform="translate(57,130)"/>
<path d="M0 0 C8.24148554 5.8499307 15.02659075 13.83127195 17 24 C17.09653351 26.32257812 17.13494245 28.64775895 17.14044189 30.97233582 C17.14341302 31.67429701 17.14638414 32.3762582 17.1494453 33.09949094 C17.15811729 35.45200019 17.15963934 37.80445846 17.16113281 40.15698242 C17.16576245 41.84425464 17.1707873 43.53152582 17.17617798 45.21879578 C17.18929936 49.80633052 17.19574769 54.39385062 17.20018864 58.98140121 C17.20312283 61.85334388 17.20722853 64.7252826 17.21169281 67.59722328 C17.22537375 76.5988711 17.23503465 85.60050982 17.2388947 94.60216731 C17.24336194 104.96125767 17.26084502 115.3202152 17.2898953 125.6792652 C17.31160794 133.70332706 17.32160424 141.72735184 17.32293582 149.75144273 C17.32397801 154.5346003 17.32975854 159.31763312 17.34775543 164.10075951 C17.36440004 168.61273568 17.36631335 173.12449559 17.35761642 177.63649178 C17.35685443 179.27900655 17.36107584 180.92153373 17.37107468 182.56401825 C17.58574752 220.07552569 3.12596299 254.71475509 -23.2409668 281.4362793 C-24.64900449 282.83421619 -26.05718392 284.23203467 -27.47238731 285.6227169 C-28.99621469 287.12040865 -30.51316957 288.62479217 -32.02876282 290.1308136 C-35.24264822 293.32215224 -38.46444174 296.50542917 -41.6875 299.6875 C-45.43966427 303.39211896 -49.18832439 307.10015574 -52.92862892 310.81675148 C-54.41002885 312.28536705 -55.89739533 313.74773956 -57.38517761 315.20988464 C-70.82172313 328.54904076 -77.69575521 340.28235078 -78.16015625 359.546875 C-78.18754883 360.52688477 -78.21494141 361.50689453 -78.24316406 362.51660156 C-78.28871271 364.47647653 -78.31092086 366.43705953 -78.30761719 368.39746094 C-78.32598633 369.30786133 -78.34435547 370.21826172 -78.36328125 371.15625 C-78.36626221 371.96900391 -78.36924316 372.78175781 -78.37231445 373.61914062 C-79.08117836 376.30791573 -80.10824717 378.00589078 -82.12527752 379.9265461 C-86.46511374 382.4115081 -91.93658126 381.69665075 -96.7890625 381.6628418 C-98.73857819 381.67839363 -98.73857819 381.67839363 -100.72747803 381.69425964 C-104.28547027 381.72128797 -107.84276077 381.71661308 -111.40081024 381.70455909 C-114.37308892 381.69742257 -117.34523824 381.70593041 -120.31750679 381.71446449 C-127.32962847 381.73440963 -134.34140915 381.72885518 -141.35351562 381.70678711 C-148.58439198 381.68441704 -155.81437586 381.70203033 -163.04516792 381.73983639 C-169.25767884 381.77107593 -175.46991355 381.77898493 -181.68249321 381.76788265 C-185.39116119 381.76139729 -189.09931406 381.76338878 -192.80792236 381.78720665 C-196.94282204 381.812411 -201.07605832 381.78883735 -205.2109375 381.76049805 C-206.43810486 381.77421448 -207.66527222 381.78793091 -208.92962646 381.80206299 C-216.7969891 381.69405739 -216.7969891 381.69405739 -219.87460232 379.91847897 C-223.06341237 376.64064942 -223.5923405 373.07523824 -223.66653442 368.73080444 C-223.65484222 367.9375174 -223.64315002 367.14423035 -223.63110352 366.3269043 C-223.63825882 365.47551376 -223.64541412 364.62412323 -223.65278625 363.74693298 C-223.6696566 360.93881088 -223.65026256 358.13229094 -223.62890625 355.32421875 C-223.62973594 353.3556963 -223.63219911 351.38717392 -223.63621521 349.4186554 C-223.6390732 345.28857608 -223.62438666 341.15903894 -223.59692383 337.02905273 C-223.56308785 331.78205158 -223.56877678 326.53603522 -223.5875864 321.28898907 C-223.59826104 317.21779973 -223.58912065 313.14683152 -223.57420158 309.07566261 C-223.56907887 307.14433262 -223.56942824 305.2129789 -223.57574654 303.28165245 C-223.63385589 274.81140059 -215.27080557 250.61091976 -195 230 C-194.25234375 229.23945313 -193.5046875 228.47890625 -192.734375 227.6953125 C-181.76162033 217.19489496 -169.27674958 211.27133697 -154.99414062 206.64990234 C-152.01529253 205.67907795 -149.06699407 204.63960446 -146.125 203.5625 C-145.19945312 203.23378906 -144.27390625 202.90507812 -143.3203125 202.56640625 C-131.7245197 197.09592047 -123.58586303 189.03082862 -114.8125 179.9375 C-90.89577373 155.29497257 -90.89577373 155.29497257 -76.44921875 154.69140625 C-72.28999691 154.63881789 -68.15300281 154.77857213 -64 155 C-62.59984867 145.24383724 -61.51124732 135.54507645 -60.8984375 125.703125 C-60.85647625 125.03781013 -60.814515 124.37249527 -60.7712822 123.68701935 C-60.02655864 111.58055108 -59.80288049 99.48655012 -59.7265625 87.359375 C-59.7207592 86.47829575 -59.7149559 85.59721649 -59.70897675 84.68943787 C-59.65816789 76.52022164 -59.62647014 68.35101186 -59.61914062 60.18164062 C-59.61410039 55.64470982 -59.58978156 51.10820465 -59.55381393 46.57141876 C-59.54413072 44.87321792 -59.54161993 43.17495795 -59.54698563 41.47673798 C-59.58752759 28.07068035 -58.34312716 16.7362606 -49.203125 6.19140625 C-36.24164372 -6.70113098 -15.76924306 -9.68844142 0 0 Z M-35.703125 23.18359375 C-38.98321028 27.7776891 -39.29419716 31.58921739 -39.28710938 37.16381836 C-39.29394241 37.98588776 -39.30077545 38.80795715 -39.30781555 39.65493774 C-39.32140553 41.44291896 -39.33045754 43.23093908 -39.33552551 45.01896477 C-39.34386592 47.8796027 -39.36443475 50.73992907 -39.38806152 53.60047913 C-39.43630352 59.71277214 -39.46903313 65.82509851 -39.5 71.9375 C-39.82275819 134.64049881 -39.82275819 134.64049881 -43.89807129 161.42918396 C-44.38851585 164.81732605 -44.55460606 167.04857151 -42.796875 170.06396484 C-41.73962653 171.41071359 -40.65706446 172.73794671 -39.55102539 174.04492188 C-35.14679065 179.59648992 -34.46845361 185.93526527 -34.5625 192.8125 C-34.57079834 193.60003662 -34.57909668 194.38757324 -34.58764648 195.19897461 C-35.06257891 211.66949575 -45.03478934 221.34973999 -56.16796875 232.43359375 C-57.13516354 233.40213961 -58.1020616 234.37098186 -59.06867981 235.34010315 C-61.07828724 237.35263405 -63.09140356 239.36156631 -65.10717773 241.36791992 C-67.68624576 243.93551768 -70.25612503 246.51209727 -72.82349682 249.09138393 C-74.81103307 251.08614874 -76.80330962 253.07612414 -78.79705238 255.06468391 C-80.20668851 256.47234679 -81.61231469 257.88402156 -83.01786804 259.29576111 C-84.30489372 260.57333031 -84.30489372 260.57333031 -85.61791992 261.87670898 C-86.36957932 262.62677719 -87.12123871 263.3768454 -87.89567566 264.14964294 C-91.11078435 266.9767257 -93.22937755 267.91743331 -97.5 268.375 C-101 268 -101 268 -103.375 266.125 C-106.07359873 262.5960632 -106.4276949 260.44802699 -106 256 C-103.54180793 251.8751977 -100.77023463 248.5333652 -97.35498047 245.17553711 C-96.44078339 244.27117416 -95.5265863 243.36681122 -94.58468628 242.43504333 C-94.1010751 241.9612921 -93.61746391 241.48754086 -93.11919785 240.99943352 C-91.59249547 239.50314359 -90.07278278 238.00006002 -88.55471802 236.49501038 C-84.24080875 232.22066029 -79.91411098 227.95933797 -75.58447266 223.70092773 C-72.92811546 221.08733692 -70.27915097 218.46643191 -67.63437271 215.8411274 C-66.6285791 214.84587547 -65.61988292 213.85354774 -64.60821152 212.86427116 C-63.19410255 211.48143838 -61.78994481 210.08845154 -60.38623047 208.69506836 C-59.58555145 207.90708359 -58.78487244 207.11909882 -57.95993042 206.30723572 C-53.75200566 201.35365461 -53.43860707 196.30702829 -53.5625 190.01171875 C-54.26996527 185.14157833 -56.3646117 182.22456617 -60 179 C-64.47836965 175.69520731 -69.09210606 174.17867745 -74.67626953 174.6027832 C-84.94290215 176.35775392 -93.2152957 188.03726444 -100.07397461 195.13549805 C-115.07735669 210.61550979 -130.35653141 220.25260181 -150.8125 227.0625 C-171.42089003 233.97633614 -185.42897426 246.51470838 -195.6875 265.625 C-202.03193608 278.97632438 -203.5984478 291.74808576 -203.390625 306.3125 C-203.38471884 307.72590498 -203.38065361 309.13931883 -203.37841797 310.55273438 C-203.35773611 315.70195931 -203.30189418 320.85099503 -203.25 326 C-203.1675 337.55 -203.085 349.1 -203 361 C-168.68 361 -134.36 361 -99 361 C-98.505 353.08 -98.505 353.08 -98 345 C-96.7307039 337.83221026 -94.62410806 331.61692852 -91.5625 325.0625 C-91.2936499 324.45470703 -91.0247998 323.84691406 -90.74780273 323.22070312 C-82.34126668 306.315082 -63.84049321 292.80737379 -50.54223633 279.7890625 C-32.53533139 262.14872412 -17.86457143 245.06549286 -9.1875 221.125 C-8.90938477 220.3719458 -8.63126953 219.6188916 -8.34472656 218.84301758 C-3.66262698 205.20590355 -2.54879223 191.25387868 -2.58007812 176.95874023 C-2.57271307 175.33375984 -2.56411991 173.70878462 -2.55441284 172.08381653 C-2.53246677 167.72900547 -2.52925167 163.37438499 -2.53116035 159.01952624 C-2.53128109 155.36846342 -2.52267723 151.71743954 -2.51438284 148.06638771 C-2.49525348 139.45560825 -2.49222968 130.84492573 -2.49902344 122.23413086 C-2.50568736 113.37068452 -2.48268179 104.50765186 -2.44570971 95.64428943 C-2.41500049 88.00309631 -2.40365307 80.3620364 -2.40754652 72.72078282 C-2.40960925 68.16997904 -2.40420541 63.61949904 -2.37965393 59.0687542 C-2.35736312 54.79778288 -2.3592835 50.52748825 -2.37958145 46.2565136 C-2.3829851 44.69406099 -2.37793016 43.13156248 -2.36359787 41.56917191 C-2.17210974 29.82563152 -2.17210974 29.82563152 -8 20 C-18.10498249 12.11811366 -27.73911213 13.61393312 -35.703125 23.18359375 Z " fill="#052A74" transform="translate(495,131)"/>
<path d="M0 0 C19.61380657 8.75696148 32.7849162 35.38385288 40.2734375 54.2734375 C48.1490592 75.15279428 49.98299045 100.18766445 45 122 C44.80535156 122.8765625 44.61070312 123.753125 44.41015625 124.65625 C37.78117279 151.32908285 23.5110992 175.64624354 2 193 C-2.50431794 191.58318727 -5.38307276 189.12298278 -8.625 185.8125 C-9.14425049 185.28422607 -9.66350098 184.75595215 -10.19848633 184.21166992 C-35.80548004 157.48643297 -45.7913965 124.05886779 -45.09326172 87.75585938 C-44.91087843 82.36648088 -44.17356375 77.2540584 -43 72 C-42.75507813 70.77925781 -42.51015625 69.55851562 -42.2578125 68.30078125 C-36.70685058 42.36095632 -21.10150197 16.23192459 0 0 Z " fill="#FCBDB8" transform="translate(255,23)"/>
<path d="M0 0 C0.495 0.99 0.495 0.99 1 2 C0.67 2.66 0.34 3.32 0 4 C-7.25240643 46.70281838 3.5697638 91.63912204 28 127 C29.885668 129.52094653 31.79884273 131.98571552 33.8203125 134.3984375 C35 136 35 136 35 138 C35.66 138.33 36.32 138.66 37 139 C2.68 139 -31.64 139 -67 139 C-67.0825 127.45 -67.165 115.9 -67.25 104 C-67.28641602 100.38675781 -67.32283203 96.77351563 -67.36035156 93.05078125 C-67.37841797 88.55273438 -67.37841797 88.55273438 -67.3817749 86.43041992 C-67.38781732 84.9844059 -67.40167068 83.53840875 -67.42230225 82.0925293 C-67.60769416 68.38471828 -65.88133945 54.96903454 -59.3125 42.6875 C-58.9707373 42.02999756 -58.62897461 41.37249512 -58.27685547 40.69506836 C-48.13493678 21.87484726 -32.28794691 10.65165149 -12.375 4.125 C-11.18003906 3.7228125 -9.98507812 3.320625 -8.75390625 2.90625 C-5.83928025 1.92693566 -2.92153047 0.95847712 0 0 Z " fill="#B45248" transform="translate(359,353)"/>
<path d="M0 0 C1.0003125 -0.00386719 2.000625 -0.00773437 3.03125 -0.01171875 C3.98 -0.01042969 4.92875 -0.00914063 5.90625 -0.0078125 C7.19499023 -0.00612061 7.19499023 -0.00612061 8.50976562 -0.00439453 C10.5 0.125 10.5 0.125 11.5 1.125 C14.20439326 33.40562136 4.97576752 65.65532042 -15.80957031 90.703125 C-32.84702713 110.55354333 -53.44616279 123.69354556 -78.5 131.125 C-79.50675781 131.434375 -80.51351563 131.74375 -81.55078125 132.0625 C-89.79559858 134.38309811 -97.98762465 134.8117273 -106.5 135.125 C-106.1285083 134.70017334 -105.7570166 134.27534668 -105.37426758 133.83764648 C-75.73745333 99.64998376 -66.64521302 62.59743888 -65.5 18.125 C-44.52880191 6.47151341 -24.17965511 -0.09646139 0 0 Z " fill="#D94A85" transform="translate(387.5,85.875)"/>
<path d="M0 0 C9.89431913 0.00348809 18.80803929 0.57385131 28.375 3.25 C29.62667969 3.57871094 30.87835938 3.90742187 32.16796875 4.24609375 C57.37903107 11.25403107 57.37903107 11.25403107 64.375 18.25 C64.48543384 20.19827337 64.53100936 22.15026195 64.55078125 24.1015625 C64.57180908 25.33471191 64.59283691 26.56786133 64.61450195 27.83837891 C64.62567047 28.49686829 64.63683899 29.15535767 64.64834595 29.83380127 C64.995111 47.91153084 66.36480782 66.37279751 73.375 83.25 C73.64296387 83.90742188 73.91092773 84.56484375 74.18701172 85.2421875 C81.08751655 102.02134906 89.8905283 116.25160458 101.375 130.25 C102.71024816 131.915133 104.04431625 133.58121712 105.375 135.25 C75.1311244 134.7911274 47.51934145 122.49963844 25.375 102.25 C24.57578125 101.53328125 23.7765625 100.8165625 22.953125 100.078125 C1.06044866 79.42758632 -11.69758684 49.38345922 -12.71899414 19.5 C-12.7576236 16.72839697 -12.76173673 13.95932386 -12.75 11.1875 C-12.75386719 10.23939453 -12.75773437 9.29128906 -12.76171875 8.31445312 C-12.76042969 7.41533203 -12.75914063 6.51621094 -12.7578125 5.58984375 C-12.75668457 4.77894287 -12.75555664 3.96804199 -12.75439453 3.13256836 C-12.40129895 -2.00463927 -3.83095117 0.00960001 0 0 Z " fill="#D94A85" transform="translate(125.625,85.75)"/>
<path d="M0 0 C22.06610372 3.85492173 42.36320733 13.61906679 55.875 31.875 C66.64507313 48.65814125 70.66815474 64.66158481 70.390625 84.3125 C70.38313768 85.90388263 70.37745659 87.49527466 70.37347412 89.08666992 C70.3584132 93.21641824 70.31930819 97.34557748 70.2746582 101.47509766 C70.23327588 105.71248411 70.21537271 109.94996847 70.1953125 114.1875 C70.15278819 122.45859961 70.08478409 130.72922595 70 139 C65.2862406 139.17396062 60.57437563 139.30048333 55.8581543 139.38452148 C54.256586 139.41957346 52.65523931 139.46723248 51.05444336 139.52807617 C37.76536032 140.02026443 37.76536032 140.02026443 33.44194031 137.52160645 C31.67674068 135.76904355 30.34642616 134.08356097 29 132 C28.11984869 130.94023197 27.23189148 129.88683492 26.33203125 128.84375 C6.84266549 103.54109805 -4.68497693 73.10363715 -4.33618164 41.1262207 C-4.31240479 38.80319786 -4.31567765 36.48131878 -4.32226562 34.15820312 C-4.29996602 22.47034575 -3.10375335 11.30653007 0 0 Z " fill="#D36A5C" transform="translate(150,353)"/>
<path d="M0 0 C0.33 0 0.66 0 1 0 C1.10957031 1.23234375 1.21914062 2.4646875 1.33203125 3.734375 C4.11478717 33.47733757 14.51285735 56.88474477 37.125 76.6875 C48.0471693 85.2725432 60.83114941 90.84690766 74 95 C65.40035647 113.25373927 54.84401462 129.23089785 39 142 C34.49568206 140.58318727 31.61692724 138.12298278 28.375 134.8125 C27.85574951 134.28422607 27.33649902 133.75595215 26.80151367 133.21166992 C1.19451996 106.48643297 -8.7913965 73.05886779 -8.09326172 36.75585938 C-7.68508081 24.6942205 -4.79340612 11.12754993 0 0 Z " fill="#FB7C9F" transform="translate(218,74)"/>
<path d="M0 0 C1.0003125 -0.00386719 2.000625 -0.00773437 3.03125 -0.01171875 C3.98 -0.01042969 4.92875 -0.00914063 5.90625 -0.0078125 C7.19499023 -0.00612061 7.19499023 -0.00612061 8.50976562 -0.00439453 C10.5 0.125 10.5 0.125 11.5 1.125 C14.20439326 33.40562136 4.97576752 65.65532042 -15.80957031 90.703125 C-31.56819306 109.06356794 -31.56819306 109.06356794 -40.5 112.125 C-39.0018228 106.93400319 -37.41540379 101.79580861 -35.59765625 96.70703125 C-35.26443359 95.76021484 -34.93121094 94.81339844 -34.58789062 93.83789062 C-33.92067463 91.95062254 -33.24158215 90.06749728 -32.54882812 88.18945312 C-25.69356828 68.44260635 -24.94252115 48.39445985 -25.25 27.6875 C-25.27013438 25.2871246 -25.28837265 22.88673252 -25.3046875 20.48632812 C-25.34804345 14.69884468 -25.4143838 8.91200492 -25.5 3.125 C-17.32273993 -0.37826917 -8.77532809 -0.03500796 0 0 Z " fill="#FA7B9F" transform="translate(387.5,85.875)"/>
<path d="M0 0 C1.65612305 -0.01836914 1.65612305 -0.01836914 3.34570312 -0.03710938 C10.09307505 -0.04906573 16.54742199 0.30153344 23.0625 2.1875 C24.0625 3.1875 24.0625 3.1875 24.1953125 5.48046875 C24.19273437 6.43566406 24.19015625 7.39085938 24.1875 8.375 C24.19136719 9.78845703 24.19136719 9.78845703 24.1953125 11.23046875 C24.0625 14.1875 24.0625 14.1875 23.5703125 16.87109375 C19.26276041 45.00272243 26.41321704 74.06821086 35.4765625 100.47265625 C36.80106779 104.34866733 37.97985215 108.23744325 39.0625 112.1875 C34.38373064 110.73188286 31.29253923 108.00130683 27.8125 104.6875 C27.24039795 104.14778564 26.6682959 103.60807129 26.07885742 103.05200195 C12.35001821 89.96691289 2.38223493 75.64526353 -4.9375 58.1875 C-5.33710937 57.24390625 -5.73671875 56.3003125 -6.1484375 55.328125 C-11.69286031 41.23778733 -13.12607412 26.13908828 -13.0625 11.125 C-13.06636719 10.17689453 -13.07023437 9.22878906 -13.07421875 8.25195312 C-13.07292969 7.35283203 -13.07164063 6.45371094 -13.0703125 5.52734375 C-13.06918457 4.71644287 -13.06805664 3.90554199 -13.06689453 3.07006836 C-12.71055334 -2.11435983 -3.85643883 0.00218248 0 0 Z " fill="#FB7C9F" transform="translate(125.9375,85.8125)"/>
<path d="M0 0 C3.84909294 8.24171774 7.35960408 16.45177614 9.9375 25.1875 C10.14850342 25.89318115 10.35950684 26.5988623 10.5769043 27.32592773 C11.60880229 30.96537112 12.24257367 34.21438054 12 38 C10.845 38.350625 9.69 38.70125 8.5 39.0625 C0.4013021 41.74914938 -7.75395277 45.22057804 -15.29296875 49.21484375 C-17 50 -17 50 -20 50 C-20.35191406 48.87464844 -20.70382812 47.74929687 -21.06640625 46.58984375 C-23.81600428 37.9849866 -26.76571578 29.73195329 -30.90258789 21.68530273 C-31.66979062 20.1558221 -32.34322043 18.58004798 -33 17 C-31.77540202 13.32620605 -30.96388227 13.14678721 -27.625 11.40625 C-26.72136719 10.93316406 -25.81773437 10.46007813 -24.88671875 9.97265625 C-23.93410156 9.48667969 -22.98148437 9.00070313 -22 8.5 C-20.61748047 7.77103516 -20.61748047 7.77103516 -19.20703125 7.02734375 C-5.63104564 0 -5.63104564 0 0 0 Z " fill="#D84A85" transform="translate(337,33)"/>
<path d="M0 0 C11.11542297 0.75786975 22.75590893 6.95192802 32 13 C33 16 33 16 31.5234375 19.44921875 C30.81354177 20.86513008 30.09695801 22.27770091 29.375 23.6875 C25.31572532 31.90486066 22.46655705 40.1891736 20 49 C15.41303701 48.34345211 11.48288031 46.54326646 7.3125 44.625 C1.86382976 42.16913833 -3.48305275 40.03618976 -9.27734375 38.5078125 C-11 38 -11 38 -12 37 C-11.52317582 31.37719015 -10.41477037 26.15070766 -8.8125 20.75 C-8.59762939 20.0185376 -8.38275879 19.2870752 -8.16137695 18.53344727 C-6.14324111 11.95382079 -3.36950169 6.00952363 0 0 Z " fill="#D84A85" transform="translate(175,34)"/>
</svg>
